<?xml version="1.0" standalone="no"?>
<!DOCTYPE svg PUBLIC "-//W3C//DTD SVG 20010904//EN"
 "http://www.w3.org/TR/2001/REC-SVG-20010904/DTD/svg10.dtd">
<svg version="1.0" xmlns="http://www.w3.org/2000/svg"
 width="610.000000pt" height="610.000000pt" viewBox="0 0 610.000000 610.000000"
 preserveAspectRatio="xMidYMid meet">
<metadata>
Created by potrace 1.14, written by Peter Selinger 2001-2017
</metadata>
<g transform="translate(0.000000,610.000000) scale(0.100000,-0.100000)"
fill="#000000" stroke="none">
<path d="M3920 3096 l0 -776 170 0 170 0 0 255 0 256 112 -3 111 -3 136 -250
136 -250 193 -3 c105 -1 192 0 192 4 0 3 -72 124 -160 269 -88 144 -160 265
-160 268 0 2 26 17 58 33 112 55 203 178 231 312 16 76 14 238 -4 307 -35 134
-110 227 -229 285 -111 55 -165 61 -578 67 l-378 6 0 -777z m757 460 c81 -35
123 -106 123 -212 0 -98 -43 -173 -119 -207 -40 -19 -69 -22 -233 -25 l-188
-4 0 237 0 237 188 -4 c152 -3 195 -7 229 -22z"/>
<path d="M2620 3090 l0 -770 175 0 175 0 0 630 0 630 360 0 360 0 0 140 0 140
-535 0 -535 0 0 -770z"/>
<path d="M1436 3834 c-317 -63 -565 -315 -621 -631 -36 -198 6 -400 115 -568
67 -103 191 -213 301 -268 133 -66 197 -81 354 -81 152 0 220 14 341 74 163
80 284 200 364 364 51 104 70 177 76 301 27 507 -434 908 -930 809z m534 -384
l0 -50 -385 0 -385 0 0 50 0 50 385 0 385 0 0 -50z m-201 -552 c94 -164 171
-300 171 -303 0 -3 -160 -5 -356 -5 -201 0 -354 4 -352 9 15 40 353 609 359
604 3 -5 83 -142 178 -305z"/>
<path d="M3226 3181 c-3 -5 -12 -55 -21 -112 -8 -57 -17 -119 -20 -136 l-6
-33 226 0 225 0 0 145 0 145 -199 0 c-110 0 -202 -4 -205 -9z"/>
</g>
</svg>
