<?xml version="1.0" standalone="no"?>
<!DOCTYPE svg PUBLIC "-//W3C//DTD SVG 20010904//EN"
 "http://www.w3.org/TR/2001/REC-SVG-20010904/DTD/svg10.dtd">
<svg version="1.0" xmlns="http://www.w3.org/2000/svg"
 width="260.000000pt" height="260.000000pt" viewBox="0 0 260.000000 260.000000"
 preserveAspectRatio="xMidYMid meet">
<metadata>
Created by potrace 1.14, written by Peter Selinger 2001-2017
</metadata>
<g transform="translate(0.000000,260.000000) scale(0.100000,-0.100000)"
fill="#000000" stroke="none">
<path d="M1120 1265 l0 -385 85 0 85 0 0 315 0 315 180 0 180 0 0 70 0 70
-265 0 -265 0 0 -385z"/>
<path d="M1770 1265 l0 -385 85 0 85 0 0 125 0 125 58 0 57 0 64 -121 c36 -67
70 -123 76 -125 6 -3 51 -4 99 -2 l87 3 -82 134 c-47 77 -78 136 -71 139 28 9
79 50 99 81 30 44 43 93 43 160 0 78 -19 130 -65 177 -61 64 -108 74 -342 74
l-193 0 0 -385z m380 227 c57 -28 77 -100 46 -161 -21 -40 -56 -51 -161 -51
l-95 0 0 115 0 115 88 0 c63 0 97 -5 122 -18z"/>
<path d="M473 1622 c-105 -37 -176 -104 -227 -212 -28 -58 -31 -74 -30 -155 1
-118 26 -184 101 -265 192 -207 524 -156 641 98 87 191 4 420 -188 518 -73 37
-216 45 -297 16z m327 -177 l0 -25 -195 0 -195 0 0 25 0 25 195 0 195 0 0 -25z
m-105 -277 l83 -143 -171 -3 c-93 -1 -172 -1 -174 2 -2 2 28 59 68 127 91 158
100 172 106 166 2 -3 42 -70 88 -149z"/>
<path d="M1415 1268 c-3 -24 -8 -55 -11 -70 l-6 -28 116 0 116 0 0 70 0 70
-104 0 -104 0 -7 -42z"/>
</g>
</svg>
